<svg width="69" height="67" viewBox="0 0 69 67" fill="none" xmlns="http://www.w3.org/2000/svg">
<g id="Group">
<path id="Vector" d="M39.5787 0.486641C38.9111 0.772026 37.8144 1.53304 37.0991 2.19894C35.9547 3.2929 35.7639 3.34047 35.4778 2.67457C34.9056 1.2001 31.806 2.05624 29.8509 4.19661C28.9449 5.14789 28.9449 5.14789 27.6574 4.24418C26.8945 3.72098 25.8931 3.2929 25.3685 3.2929C24.844 3.2929 24.1764 2.95996 23.8426 2.57945C23.032 1.62817 22.269 1.67574 19.9324 2.86483C18.2158 3.72098 17.7389 3.8161 16.1176 3.34047C13.9241 2.67458 12.5412 3.00752 12.1597 4.29174C11.969 4.76738 11.3014 5.86135 10.6815 6.62237C9.87084 7.57365 9.58473 8.33467 9.77547 9.00056C10.1093 9.9994 9.3463 10.3323 8.82177 9.4762C8.58334 9.09569 8.29723 9.14325 7.82038 9.52376C7.24815 9.9994 7.34352 10.4275 8.3926 12.2825C9.10788 13.4716 9.91853 14.7558 10.3 15.1363C10.8245 15.7071 10.6815 15.9449 9.39399 16.5632C8.48797 16.9913 7.82038 17.7523 7.72501 18.3706C7.58195 19.1792 7.15278 19.5122 5.8176 19.7024C4.86389 19.8927 3.14722 20.3207 2.05046 20.7012L0 21.4623L0.286111 23.4124C0.476852 24.5064 0.810649 25.6479 1.04907 25.9808C1.33519 26.3613 1.23982 27.0272 0.715278 27.9309C-0.0953705 29.2152 -0.0476853 29.4054 0.715278 31.0702C1.52593 32.7824 1.52593 32.9727 0.762964 34.2094C0 35.5887 0 35.5887 1.6213 37.0632C2.47963 37.8718 3.57639 38.823 4.05324 39.1084C4.72084 39.6316 4.76852 40.0121 4.29167 41.9623C3.95787 43.1989 3.81482 44.6734 3.95787 45.2442C4.10093 45.7674 4.05324 46.6235 3.81482 47.0991C3.2426 48.1455 3.67176 49.4298 4.57778 49.4298C4.95926 49.4298 5.24537 49.7152 5.24537 50.0957C5.24537 50.4286 5.67454 51.2848 6.19908 51.9507C6.72362 52.6165 7.15278 53.5678 7.15278 54.1386C7.15278 54.852 7.86806 55.4228 9.82316 56.3741C12.6366 57.7059 13.8287 57.8961 15.7838 57.3729C16.8329 57.1351 16.9759 57.2302 16.9759 58.0864C16.9283 58.7523 17.6912 59.5609 19.3125 60.7024C20.6477 61.6061 22.0783 63.0806 22.5074 63.9367C23.4134 65.6966 23.7949 65.8868 26.8468 66.3149C28.2297 66.5527 29.088 66.4576 29.3264 66.1247C29.5172 65.7441 30.6139 65.6966 32.6167 65.8868C35.3824 66.1722 35.6685 66.0771 37.1468 64.8404C38.0528 64.127 39.0065 62.8903 39.3403 62.0817L39.9602 60.7024L40.7709 61.9866C41.3431 62.8428 41.8676 63.1757 42.4398 62.9855C42.9167 62.8428 43.4412 62.9379 43.632 63.2233C43.8704 63.6038 44.7764 63.6513 46.3977 63.4611C48.925 63.0806 51.7385 61.3207 52.263 59.7987C52.4061 59.323 53.1213 58.9425 53.9797 58.8474C55.3625 58.7047 55.5533 58.4669 56.4593 55.8509C57.0315 54.2813 57.8422 52.4739 58.319 51.808C58.7482 51.1896 59.1297 50.2859 59.1297 49.8103C59.1297 49.0968 59.5112 48.9541 61.1801 48.9541C62.3246 48.9541 63.5644 48.6688 63.9936 48.3358C65.2334 47.337 67.2839 43.2465 67.1408 42.1049C67.0931 41.4866 67.2839 40.6305 67.6653 40.2024C68.5714 39.1084 68.0468 34.8753 66.7593 33.163C65.6149 31.5934 65.6149 31.4031 66.5209 30.4043C67.2839 29.5481 67.0454 28.0261 66.1871 28.0261C65.901 28.0261 66.2348 27.598 66.9501 27.0272C68.2376 25.9808 68.5237 24.7442 67.6653 23.888C67.2839 23.5075 67.2839 23.0794 67.6176 22.4611C67.9514 21.8903 67.9514 21.272 67.6653 20.8439C67.4269 20.511 67.2362 19.5122 67.2362 18.7511C67.2362 16.7535 66.8547 16.3254 63.7551 14.946C62.2769 14.2326 61.0371 13.3764 61.0371 12.9959C61.0371 11.6641 59.1774 10.4275 57.27 10.4275C55.7917 10.4275 55.3149 10.2372 55.0764 9.4762C54.9334 8.953 54.3612 8.2871 53.8366 8.04928C53.3598 7.7639 52.9306 7.14557 52.9306 6.66993C52.9306 6.14673 52.0723 5.10033 50.9755 4.29174C49.8787 3.53072 48.5912 2.19894 48.1144 1.39035C47.2561 0.0110016 47.113 -0.0365601 44.0135 0.0110016C42.2014 0.0110016 40.2463 0.248817 39.5787 0.486641ZM47.876 2.57945C48.5912 3.48316 49.7834 4.57712 50.594 4.95763C51.5477 5.48083 51.9769 6.05161 51.9769 6.86019C51.9769 7.57365 52.4061 8.23954 53.0737 8.57249C55.1718 9.66645 55.4102 10.9031 53.5505 10.9031C50.0218 10.9507 45.2056 14.8033 42.3922 19.7024C40.7709 22.5562 39.9602 23.2221 38.9588 22.4135C38.6727 22.1282 37.4806 21.9855 36.3361 22.033C35.1917 22.0806 34.1426 21.9379 33.9996 21.7001C33.8565 21.5098 33.475 21.4147 33.1412 21.5574C31.2815 22.2233 29.7079 17.895 29.231 10.808C28.8972 6.05161 29.4218 4.76738 32.2352 3.43559C33.5704 2.7697 34.0949 2.72214 34.8102 3.19778C36.1454 4.00636 36.3838 3.95879 38.3866 2.34163C40.0079 1.0574 40.5324 0.914719 43.3936 0.914719C46.5408 0.914719 46.6362 0.96228 47.876 2.57945ZM23.7949 3.53072C24.5579 3.91123 25.2732 4.10149 25.4162 3.91123C25.5593 3.76854 26.2746 4.10149 26.9898 4.67225C28.182 5.57596 28.2773 6.00404 28.182 8.19197C28.0866 11.1409 29.231 18.0852 30.2801 20.5586C31.2338 22.7941 31.1861 23.127 29.994 23.4124C29.4218 23.5551 29.1357 23.888 29.2787 24.1258C29.4218 24.4112 29.0403 25.1247 28.3727 25.6954C27.7528 26.3138 27.1806 27.1224 27.1806 27.4077C27.1806 27.7407 26.9898 28.0261 26.7991 28.0261C26.2269 28.0261 22.7935 25.5052 21.9352 24.4588C21.5537 23.9832 19.4556 22.4611 17.3574 21.0818C13.5903 18.656 11.3968 16.1351 8.58334 10.9507C8.0588 9.95183 8.10649 9.90427 9.01251 10.3799C10.3954 11.1409 10.4907 11.0458 10.4907 9.23838C10.4907 8.33467 10.6815 7.57365 10.9676 7.57365C11.206 7.57365 11.8736 6.71749 12.3982 5.67109C13.4472 3.57829 13.638 3.53072 16.213 4.29174C17.6912 4.76738 18.2158 4.67225 19.8371 3.86367C22.0783 2.62701 22.1259 2.62701 23.7949 3.53072ZM59.988 13.091C60.4649 14.1375 61.3709 14.8509 63.469 15.7546C65.8056 16.801 66.2825 17.1815 66.2825 18.2279C66.2825 18.8463 66.5209 19.9878 66.7593 20.7012C67.0931 21.605 67.0931 22.1282 66.7116 22.6038C66.2825 23.127 66.3301 23.4599 66.7593 23.9832C67.57 24.982 67.2362 25.6479 64.6135 28.1212C61.7524 30.7372 60.3218 31.1653 52.6922 31.5458C47.2561 31.8312 46.9223 31.8312 46.35 30.8799C46.0162 30.3567 45.8732 29.6908 46.0162 29.453C46.1593 29.2152 45.9686 28.8822 45.5871 28.6444C45.2056 28.4541 44.9195 28.1688 44.9195 28.0261C45.0625 27.4553 43.5843 25.6479 43.0598 25.6479C42.726 25.6479 42.4398 25.4101 42.4398 25.1722C42.4398 24.8869 42.1061 24.6966 41.7246 24.6966C41.3431 24.6966 41.0093 24.4588 41.0093 24.1734C41.0093 23.0319 44.9195 17.134 46.8746 15.3265C50.3079 12.1873 52.3107 11.3787 56.7454 11.5214C59.1774 11.6166 59.4158 11.7117 59.988 13.091ZM12.4935 18.2755C13.0181 18.9414 14.9732 20.5586 16.8806 21.8428C18.7403 23.1746 21.3153 25.0771 22.5551 26.1235C23.8426 27.1699 25.2255 28.2163 25.6546 28.4541C26.4176 28.8822 26.3699 28.9773 25.5116 29.6432C24.9871 30.0238 24.7009 30.4994 24.8917 30.6896C25.0824 30.8799 24.8917 31.308 24.4148 31.6409C23.7472 32.1641 23.6996 32.3544 24.2718 32.7349C24.7009 33.0203 24.7486 33.2581 24.3671 33.4483C24.081 33.6386 23.8426 34.3045 23.8426 34.9228C23.8426 35.8265 23.3658 36.2546 21.7445 37.0156C16.7375 39.2036 9.06019 40.4402 6.53288 39.4889C5.76991 39.2036 4.1963 38.1572 3.05185 37.2059C0.953704 35.5411 0.953704 35.4936 1.71667 34.3045C2.43195 33.2105 2.43195 33.0203 1.6213 31.2604C0.810649 29.5005 0.810649 29.3103 1.6213 27.9785C2.19352 27.0272 2.28889 26.3613 2.00278 25.9808C1.76435 25.6479 1.43056 24.6015 1.2875 23.6502C1.04907 21.9379 1.09676 21.8428 2.76574 21.3671C3.71945 21.0818 5.38843 20.7012 6.43751 20.511C7.86806 20.2256 8.34491 19.8927 8.34491 19.2268C8.34491 16.8486 10.9199 16.2778 12.4935 18.2755ZM33.7611 22.9843C34.0949 23.1746 34.6672 23.127 35.0486 22.7941C35.4778 22.4135 35.7639 22.4135 36.0023 22.7941C36.1931 23.0794 36.7176 23.1746 37.1945 23.0319C37.6713 22.8892 38.1959 22.9843 38.3866 23.2697C38.5297 23.5075 39.1019 23.7453 39.6264 23.7453C40.1986 23.7453 40.5324 24.0783 40.5324 24.649C40.5324 25.2198 40.9616 25.6479 41.7246 25.8381C42.3922 26.0284 42.9167 26.4565 42.9167 26.837C42.9167 27.2175 43.2028 27.5504 43.5843 27.5504C44.0135 27.5504 44.1565 27.8834 44.0135 28.5017C43.8227 29.2152 44.0135 29.453 44.6334 29.5005C45.1579 29.5005 45.301 29.6432 44.9672 29.7859C44.0611 30.1189 44.2042 31.3555 45.1102 31.3555C45.7778 31.3555 45.7778 31.4982 45.301 32.069C44.9672 32.4971 44.8241 32.9251 44.9672 33.1154C45.1579 33.2581 45.0625 33.6862 44.7764 34.0191C44.4903 34.3521 44.4903 34.685 44.7764 34.8753C45.4917 35.3509 44.8241 36.9205 43.2028 38.7279C42.106 39.917 41.5338 40.25 41.1524 39.8695C40.7709 39.4889 40.4371 39.6792 39.8648 40.4402C39.4834 41.0585 38.9588 41.3915 38.8158 41.2012C38.625 41.011 38.1482 41.1537 37.7667 41.4866C37.1945 41.9147 37.0037 41.9147 36.8607 41.4391C36.6223 40.8207 35.2871 40.6305 35.2871 41.2488C35.2871 41.8196 33.2366 41.6769 32.7598 41.1061C32.4736 40.8207 32.2829 40.8207 32.0922 41.2012C31.7584 42.0574 30.2801 41.9623 29.3741 41.1061C28.9926 40.678 28.4681 40.3451 28.2773 40.3927C27.4667 40.4402 26.2269 38.9182 26.2269 37.9669C26.2269 37.2534 25.9884 37.0632 25.5116 37.2534C24.6056 37.5864 24.5102 35.1131 25.4162 33.7337C25.8931 32.9251 25.8454 32.6873 25.3685 32.3544C24.844 32.0214 24.8917 31.9263 25.5116 31.6409C25.9408 31.4982 26.1315 31.1653 25.9884 30.8799C25.8454 30.5945 26.0361 30.2616 26.4176 30.1189C26.8468 29.9762 27.1806 29.5481 27.1806 29.1676C27.1806 28.7871 27.419 28.5017 27.6574 28.5017C27.9435 28.5017 28.1343 28.0736 28.1343 27.5504C28.1343 27.0272 28.4204 26.5992 28.7542 26.5992C29.3264 26.5992 31.4722 23.6502 31.4722 22.7941C31.4722 22.2709 32.8074 22.366 33.7611 22.9843ZM66.044 29.0249C66.2348 29.2627 66.044 29.8811 65.6149 30.3567C64.6135 31.4507 64.6612 31.7836 65.901 33.1154C67.2839 34.5899 67.7607 39.3463 66.5686 40.0121C66.044 40.2975 65.901 40.8207 66.0917 41.6293C66.2825 42.4379 65.9487 43.627 65.0426 45.3393C63.8505 47.6223 63.5167 47.9553 61.8477 48.1931C59.5588 48.5736 58.4144 47.7175 57.6991 45.1966C57.0792 43.1038 53.2167 40.2024 48.7343 38.4425C46.1116 37.4437 45.7778 37.1583 46.0162 36.2546C46.1593 35.6838 46.0162 35.0655 45.7778 34.9228C45.4917 34.7326 45.444 34.3521 45.6348 34.0667C45.8255 33.7337 46.0162 33.3056 46.0162 33.1154C46.0162 32.8776 48.5912 32.6398 51.7385 32.4971C59.1297 32.2592 62.0385 31.5934 63.7075 29.8811C65.138 28.4066 65.5672 28.2163 66.044 29.0249ZM24.844 38.062C25.3209 38.6328 25.8454 39.4414 25.9884 39.917C26.1315 40.3927 27.0375 41.1537 28.0389 41.5817C28.9926 42.0574 29.8986 42.4855 29.9463 42.5806C30.5185 43.0087 24.081 50.381 21.4584 52.3312C20.5523 52.9971 19.0741 54.2337 18.2158 55.0423C16.0699 57.0875 14.0671 57.3729 11.3014 56.1363C10.1093 55.5655 8.86945 55.1374 8.63103 55.1374C8.34491 55.1374 8.10649 54.6142 8.10649 53.9483C8.10649 53.2824 7.67732 52.3312 7.15278 51.808C6.62825 51.2848 6.19908 50.5713 6.19908 50.1908C6.19908 49.8103 5.76991 49.1444 5.19769 48.7639C4.62547 48.3834 4.33936 47.8602 4.5301 47.5272C4.72084 47.2418 4.91158 45.6247 4.95926 44.0075C5.10232 40.2975 5.38843 39.8219 7.00973 40.4402C9.29862 41.2964 17.9296 39.8695 21.4584 38.0145C23.6042 36.8729 23.7949 36.8729 24.844 38.062ZM48.2574 39.2511C48.9727 39.6316 49.8311 39.917 50.1649 39.917C51.2616 39.917 56.7454 44.2929 56.7454 45.149C56.7454 45.6247 57.1746 46.5284 57.7468 47.2418C58.6051 48.3358 58.6528 48.7163 58.176 50.0957C57.8899 50.9994 57.3176 51.9982 56.9362 52.2836C56.6024 52.6165 56.2686 53.1397 56.2686 53.4727C56.2686 53.8532 55.8394 55.0899 55.3149 56.279C54.5042 58.2766 54.2658 58.4669 53.169 58.1815C52.263 57.9437 51.9292 58.0864 51.6908 58.7523C51.2139 60.0841 48.7343 62.272 47.6852 62.272C47.2084 62.272 46.2547 62.4622 45.5871 62.7001C44.7287 63.0806 44.2519 62.9855 43.8227 62.4622C43.5366 62.0817 43.0121 61.8439 42.726 61.8915C42.3922 61.9866 41.4385 61.4634 40.5801 60.7024C38.2912 58.7998 36.7176 54.1386 36.7176 49.4298C36.7176 47.2418 36.4315 45.0539 36.0023 44.0551C35.2394 42.2476 35.7639 41.2964 36.956 42.2952C37.4329 42.6757 37.6713 42.6757 37.9098 42.2952C38.1005 42.0098 38.5297 41.8671 38.8635 42.0098C39.2449 42.1525 39.7695 41.9147 40.1033 41.5342C40.3894 41.1537 40.9139 40.8683 41.2 40.9159C42.2014 41.011 43.8704 40.2975 43.8704 39.7268C43.8704 38.7279 44.9672 38.0145 46.0162 38.2998C46.5408 38.4901 47.5422 38.9182 48.2574 39.2511ZM35.1917 44.1502C35.5255 45.149 35.7639 47.5748 35.7639 49.5725C35.7639 52.4263 36.05 53.9483 37.2422 57.0875C38.9588 61.4634 38.8158 62.6525 36.5746 64.3648C35.6209 65.0783 34.4764 65.3636 32.0445 65.4112C30.2801 65.4588 28.5158 65.5063 28.1343 65.5539C25.9408 65.7441 24.2241 64.9356 23.175 63.2708C22.5551 62.3196 21.0769 60.8926 19.8371 60.1316C16.8806 58.2766 16.9283 57.2302 20.0755 54.5667C26.7991 48.859 27.1329 48.5261 30.0417 43.9124C30.4232 43.294 31.1861 42.7233 31.7107 42.6757C34.5718 42.2476 34.6672 42.2476 35.1917 44.1502Z" fill="#230541"/>
</g>
</svg>
